<?xml version="1.0" encoding="UTF-8" standalone="no"?>
<!-- Created with Inkscape (http://www.inkscape.org/) -->

<svg
   version="1.1"
   id="svg1"
   width="120"
   height="21.379"
   viewBox="0 0 120 21.379"
   sodipodi:docname="marteklas_logo.svg"
   inkscape:export-filename="..\Desktop\MARTEKLAS-LOGO.svg"
   inkscape:export-xdpi="300"
   inkscape:export-ydpi="300"
   inkscape:version="1.3.2 (091e20e, 2023-11-25, custom)"
   xmlns:inkscape="http://www.inkscape.org/namespaces/inkscape"
   xmlns:sodipodi="http://sodipodi.sourceforge.net/DTD/sodipodi-0.dtd"
   xmlns="http://www.w3.org/2000/svg"
   xmlns:svg="http://www.w3.org/2000/svg">
  <defs
     id="defs1" />
  <sodipodi:namedview
     id="namedview1"
     pagecolor="#ffffff"
     bordercolor="#000000"
     borderopacity="0.25"
     inkscape:showpageshadow="2"
     inkscape:pageopacity="0.0"
     inkscape:pagecheckerboard="0"
     inkscape:deskcolor="#d1d1d1"
     showgrid="false"
     inkscape:zoom="7.3533333"
     inkscape:cx="75"
     inkscape:cy="13.395286"
     inkscape:window-width="1920"
     inkscape:window-height="991"
     inkscape:window-x="-9"
     inkscape:window-y="-9"
     inkscape:window-maximized="1"
     inkscape:current-layer="g1" />
  <g
     inkscape:groupmode="layer"
     inkscape:label="Image"
     id="g1">
    <path
       style="fill:#fafafa;stroke-width:0.0534777"
       d="M 3.7134173,21.325848 C 3.5369408,21.302158 3.1158039,21.256589 2.7775574,21.224583 1.560385,21.109419 0.35180641,20.950424 0.09030256,20.871068 -0.02489966,20.836108 -0.0297442,20.621258 0.07535393,20.208143 0.16959663,19.837697 0.40100697,18.981891 0.50193491,18.630548 0.54418071,18.483484 0.64342837,18.134542 0.722485,17.855122 0.8015416,17.5757 0.90167436,17.226758 0.94500148,17.079694 c 0.0433272,-0.147063 0.11531672,-0.42381 0.15997592,-0.614993 0.044659,-0.191183 0.1127823,-0.46793 0.1513841,-0.614994 0.038602,-0.147063 0.1080881,-0.435843 0.1544132,-0.641732 0.046325,-0.20589 0.1472616,-0.639058 0.2243042,-0.962599 0.077042,-0.32354 0.159316,-0.696547 0.1828296,-0.828904 0.044037,-0.24788 0.153474,-0.747955 0.2867261,-1.310204 C 2.1464596,11.929792 2.23348,11.53272 2.2980137,11.223886 2.3625477,10.915052 2.4591062,10.46985 2.5125887,10.234548 2.5660707,9.9992463 2.6250427,9.7104671 2.6436369,9.5928159 2.7014303,9.227151 2.8893541,8.2725526 2.9752612,7.9082682 3.0203462,7.7170853 3.0759469,7.4403382 3.0988183,7.2932745 3.1216897,7.1462108 3.1674484,6.8919831 3.2005045,6.7283199 3.2335607,6.5646568 3.2822158,6.2758772 3.3086269,6.0865875 3.3350379,5.8972978 3.3927724,5.5739663 3.4369263,5.368077 3.4810807,5.1621878 3.5318134,4.9064201 3.5496664,4.7997053 3.5675189,4.6929905 3.6405988,4.5425844 3.7120654,4.4654696 3.8335903,4.3343423 3.8742028,4.3249708 4.3392268,4.3207503 4.9069616,4.3155951 5.0653059,4.2957822 6.3818935,4.0651307 6.9083484,3.9729014 7.4794326,3.8974412 7.6509703,3.8974412 c 0.2960719,0 0.3136687,0.00746 0.347019,0.1470637 0.019322,0.080885 0.052144,0.1711286 0.072938,0.2005414 0.020792,0.029413 0.067616,0.1738014 0.1040544,0.3208651 0.03644,0.1470638 0.089737,0.3258183 0.1184448,0.3972324 0.028704,0.071414 0.1323072,0.4323887 0.2302208,0.8021657 C 8.6869185,6.3819128 9.0938618,7.8207412 9.3641786,8.7371726 9.498757,9.193423 9.6289698,9.5596167 9.7825314,9.9136823 L 9.8985002,10.18107 9.9939082,10.06389 C 10.161483,9.8580759 11.083247,6.7580001 11.612036,4.621801 11.669956,4.3878253 11.765621,4.1017549 11.82463,3.9860879 l 0.107289,-0.2103037 0.356138,0.032454 c 0.195875,0.01785 0.668982,0.072374 1.051347,0.1211661 0.458388,0.058493 1.070063,0.087777 1.795617,0.085965 l 1.100406,-0.00275 0.0594,0.1696907 c 0.03266,0.09333 0.09867,0.3983073 0.146664,0.6777283 0.048,0.279421 0.133943,0.7056972 0.19099,0.9472827 0.05705,0.2415802 0.127143,0.5784897 0.155771,0.7486879 0.114825,0.6826429 0.389605,2.0288055 0.505258,2.4752903 0.07149,0.275988 0.121343,0.5043377 0.402797,1.8449808 0.06175,0.294127 0.135486,0.608683 0.16386,0.699013 0.02838,0.09033 0.08665,0.343011 0.129502,0.561516 0.0761,0.388055 0.23643,1.092106 0.346204,1.520312 0.291061,1.135353 0.504149,2.009195 0.525008,2.15297 0.01391,0.09586 0.0467,0.18753 0.07286,0.203702 0.02616,0.01617 0.04792,0.08213 0.04834,0.146566 4.28e-4,0.06444 0.03863,0.225462 0.0849,0.357819 0.08174,0.233843 0.273579,0.910603 0.421477,1.486889 0.04004,0.156006 0.09817,0.314225 0.129187,0.351594 0.03102,0.03737 0.09147,0.234613 0.134345,0.438305 0.148427,0.705185 0.226222,0.726132 0.367896,0.09904 0.05267,-0.233141 0.12929,-0.556249 0.17026,-0.718019 0.04097,-0.16177 0.112084,-0.474614 0.158028,-0.69521 0.08022,-0.385162 0.229346,-1.035638 0.380064,-1.657808 0.03918,-0.161771 0.118512,-0.49868 0.176276,-0.748689 0.05777,-0.250008 0.13151,-0.562852 0.16388,-0.69521 0.412885,-1.688275 0.540407,-2.234293 0.540345,-2.313638 -4e-5,-0.05187 0.0237,-0.1361 0.05278,-0.187172 0.02906,-0.05107 0.0878,-0.273346 0.130522,-0.493941 0.06873,-0.354895 0.136345,-0.656643 0.437394,-1.9519365 0.04102,-0.1764769 0.125221,-0.5494841 0.187122,-0.8289049 0.0619,-0.2794208 0.159892,-0.7125902 0.217758,-0.9625985 0.108184,-0.4674059 0.234635,-1.0749447 0.389571,-1.8717197 0.08359,-0.4298699 0.157828,-0.750442 0.293925,-1.269224 0.03267,-0.1245228 0.106304,-0.2515104 0.163636,-0.2821933 0.06595,-0.035299 1.199481,-0.071095 3.086452,-0.097469 3.439796,-0.048078 3.108476,-0.1033478 3.244182,0.5411816 0.04467,0.2121674 0.16803,0.8068931 0.274129,1.321616 0.1061,0.5147229 0.251549,1.188542 0.323219,1.4973757 0.07167,0.3088338 0.215879,0.9345229 0.320461,1.3904205 0.104583,0.4558976 0.223996,0.9371969 0.265363,1.0695537 0.04137,0.1323574 0.110429,0.3850394 0.15347,0.5615154 0.15249,0.62524 0.502034,1.940316 0.682283,2.566931 0.106658,0.370777 0.248567,0.931223 0.392691,1.550853 0.04105,0.176476 0.136855,0.537451 0.212907,0.802165 0.07605,0.264716 0.199728,0.709917 0.274837,0.989338 0.199878,0.743586 0.219604,0.813059 0.280904,0.989338 0.03069,0.08824 0.130513,0.397719 0.22184,0.687739 0.09133,0.290025 0.186564,0.566773 0.211637,0.614994 0.114262,0.219772 0.321721,0.962804 0.2911,1.042604 -0.04382,0.114196 -0.12606,0.129105 -0.931409,0.168839 -0.367659,0.01814 -1.14977,0.06732 -1.738025,0.109303 -1.321775,0.09432 -1.856321,0.09789 -1.941241,0.01298 -0.0353,-0.0353 -0.06418,-0.164369 -0.06418,-0.286827 0,-0.122464 -0.02254,-0.341511 -0.05009,-0.486773 -0.02754,-0.145262 -0.07795,-0.572361 -0.11201,-0.949111 -0.03406,-0.376745 -0.115585,-0.941016 -0.181172,-1.25393 l -0.119248,-0.56894 H 26.75905 24.838552 l -0.06311,0.133695 c -0.03471,0.07353 -0.150405,0.627025 -0.257089,1.229987 -0.106685,0.602961 -0.214454,1.156455 -0.239485,1.229987 -0.02503,0.07353 -0.0725,0.266163 -0.105505,0.42807 -0.03299,0.161909 -0.113734,0.359605 -0.179418,0.439329 l -0.119426,0.144952 -1.764765,0.06133 c -1.47873,0.05138 -1.795101,0.07629 -1.951936,0.15369 -0.198642,0.09803 -0.621709,0.177674 -1.433507,0.269875 -0.273706,0.03109 -0.63372,0.09197 -0.800032,0.135283 -0.166311,0.04332 -0.400376,0.07876 -0.520144,0.07876 -0.119768,0 -0.349345,0.03529 -0.510172,0.07841 -0.352993,0.09466 -1.447445,0.218921 -1.557201,0.176808 -0.09842,-0.03777 -0.366835,-0.912004 -0.661236,-2.153678 -0.07671,-0.32354 -0.160548,-0.636385 -0.186307,-0.695211 -0.02576,-0.05882 -0.119679,-0.407767 -0.208713,-0.775426 -0.382979,-1.581481 -0.775706,-2.914535 -0.85864,-2.914535 -0.03668,0 -0.219355,0.425415 -0.41334,0.962598 -0.65566,1.815654 -0.957713,2.587118 -1.051521,2.685656 -0.04407,0.0463 -0.582467,0.08286 -1.853308,0.125876 -0.9851544,0.03334 -1.8753497,0.05942 -1.9782113,0.05795 -0.1982218,-0.0028 -0.3744944,-0.155582 -0.3744944,-0.324524 0,-0.04969 -0.021326,-0.113197 -0.04739,-0.141138 C 7.6775323,17.851243 7.6196333,17.70806 7.5749314,17.560996 7.5302304,17.413932 7.4289458,17.125152 7.3498555,16.919264 7.2707655,16.713374 7.18348,16.467928 7.1558887,16.373828 7.1282977,16.279728 7.0705687,16.135334 7.027601,16.052962 6.984634,15.970582 6.949331,15.874689 6.94915,15.839864 6.9489896,15.805034 6.885317,15.624547 6.8077026,15.438781 6.7300876,15.253011 6.6291966,15.010778 6.5834999,14.90048 6.5378039,14.790183 6.4819142,14.699939 6.4593012,14.699939 c -0.046212,0 -0.1877426,0.437212 -0.2596711,0.802165 -0.050673,0.257111 -0.1658505,0.714575 -0.2894813,1.149771 -0.041778,0.147064 -0.1006258,0.375681 -0.1307728,0.508038 -0.088804,0.389885 -0.3071016,1.209623 -0.3845118,1.443898 -0.024297,0.07354 -0.056945,0.236324 -0.072551,0.361756 -0.015606,0.125432 -0.053098,0.274254 -0.083316,0.330717 -0.030218,0.05646 -0.054941,0.172429 -0.054941,0.2577 0,0.08527 -0.017209,0.172241 -0.038243,0.193279 -0.047782,0.04778 -0.1701335,0.504562 -0.1733079,0.647016 -0.0013,0.05826 -0.048751,0.226714 -0.1054516,0.374344 -0.0567,0.147636 -0.1318145,0.346637 -0.166921,0.442229 -0.062238,0.169465 -0.071336,0.173605 -0.3648383,0.165941 -0.1655547,-0.0043 -0.4453987,-0.02725 -0.6218751,-0.05094 z M 2.9223236,19.927385 c 0.027998,-0.03677 0.093171,-0.247334 0.1448268,-0.46793 0.051655,-0.220598 0.1125818,-0.42515 0.1353922,-0.454563 0.02281,-0.02942 0.056538,-0.137705 0.074953,-0.240649 0.018414,-0.102945 0.072819,-0.31953 0.1209008,-0.4813 0.048082,-0.16177 0.2007987,-0.727297 0.3393717,-1.256726 0.1385736,-0.529429 0.2669329,-0.998696 0.2852442,-1.042815 0.03961,-0.09544 0.240539,-0.89965 0.3006276,-1.203249 0.023285,-0.117651 0.067217,-0.274073 0.097627,-0.347605 0.03041,-0.07353 0.097712,-0.314182 0.1495605,-0.534777 0.051848,-0.220595 0.1114507,-0.425148 0.1324499,-0.454561 0.020999,-0.02941 0.053669,-0.172107 0.072599,-0.317096 0.01893,-0.144983 0.06783,-0.385633 0.1086645,-0.534777 0.040835,-0.149138 0.1357457,-0.535873 0.2109118,-0.859413 0.075166,-0.32354 0.1731576,-0.744677 0.2177591,-0.93586 0.044601,-0.191183 0.097296,-0.455897 0.1170996,-0.588255 0.019804,-0.132357 0.068758,-0.3056299 0.1087861,-0.3850547 0.040028,-0.079424 0.072779,-0.2083016 0.072779,-0.2863944 0,-0.1308072 0.1196613,-0.5777521 0.371461,-1.3874417 0.1577154,-0.5071509 0.2444514,-0.4472558 0.5370055,0.3708408 0.062419,0.1745456 0.1296674,0.3430008 0.1494407,0.374344 0.06363,0.1008536 0.3539513,0.9544433 0.4559088,1.340445 0.048206,0.182498 0.4088247,1.167456 0.4924521,1.345023 0.04365,0.09268 0.079362,0.192055 0.079362,0.220821 0,0.02877 0.062521,0.193584 0.138935,0.366263 0.245552,0.554885 0.321604,0.734329 0.4730408,1.116122 0.081666,0.205889 0.2158112,0.518734 0.2981016,0.695211 0.082291,0.176476 0.1648016,0.372841 0.1833576,0.436361 0.01856,0.06352 0.068904,0.144679 0.111884,0.180349 0.042984,0.03567 0.078144,0.12287 0.078144,0.193782 0,0.0709 0.06016,0.247649 0.1336944,0.392756 0.073536,0.145106 0.1336944,0.290919 0.1336944,0.324022 0,0.0331 0.048128,0.121378 0.1069552,0.196161 0.058824,0.07478 0.1069553,0.187535 0.1069553,0.250554 0,0.235205 0.1353488,0.33992 0.4399016,0.340348 0.3150186,5.35e-4 0.4692196,-0.05867 0.4692196,-0.179883 0,-0.04461 0.04594,-0.170102 0.102095,-0.278876 0.05615,-0.108773 0.125893,-0.257928 0.154981,-0.33146 0.02909,-0.07354 0.08943,-0.217921 0.134096,-0.320866 0.04466,-0.102945 0.201953,-0.487984 0.349525,-0.855643 0.262653,-0.654369 0.690282,-1.686666 0.830744,-2.005414 0.03889,-0.08824 0.120497,-0.29279 0.181361,-0.454561 0.06086,-0.16177 0.170819,-0.45055 0.244342,-0.641732 0.140292,-0.364798 0.455839,-1.2998989 0.622585,-1.8449806 0.120478,-0.3938368 0.247939,-0.7500736 0.344412,-0.9625992 0.04006,-0.088238 0.104405,-0.232628 0.142999,-0.3208664 0.07906,-0.1807704 0.205656,-0.3476048 0.263756,-0.3476048 0.06362,0 0.107581,0.1367212 0.507202,1.577592 0.04079,0.1470641 0.172288,0.688525 0.292223,1.203249 0.119934,0.514722 0.25524,1.068216 0.300681,1.229987 0.04544,0.16177 0.116712,0.45055 0.158382,0.641732 0.04167,0.191183 0.0989,0.407768 0.127185,0.4813 0.02828,0.07353 0.07762,0.241986 0.109632,0.374343 0.03202,0.132358 0.07922,0.28878 0.104893,0.347606 0.02567,0.05882 0.07091,0.203215 0.100527,0.320866 0.07614,0.302491 0.376688,1.412581 0.434358,1.604331 0.146299,0.486444 0.453542,1.5797 0.64625,2.299541 0.212072,0.792177 0.383651,1.397828 0.446925,1.577593 0.05837,0.165836 0.08596,0.1862 0.242001,0.178655 0.282158,-0.01366 0.301473,-0.0693 0.196135,-0.565063 C 17.35697,18.776195 17.282212,18.468778 17.242552,18.336421 17.202892,18.204063 17.0013,17.446017 16.794564,16.651873 16.587829,15.857729 16.367621,15.015455 16.305213,14.780153 16.076634,13.918317 15.990269,13.59467 15.877098,13.175822 15.813518,12.94052 15.72947,12.615643 15.690319,12.453873 15.651169,12.292103 15.581848,12.015356 15.536275,11.83888 15.440165,11.466701 15.15323,10.250201 14.943435,9.325427 14.863363,8.9724742 14.766979,8.587435 14.729249,8.4697838 14.691518,8.3521334 14.619351,8.0874182 14.568879,7.8815293 14.518407,7.6756401 14.45576,7.4843237 14.429666,7.4563815 c -0.0261,-0.027942 -0.04745,-0.1104582 -0.04745,-0.1833751 0,-0.1413789 -0.07378,-0.4048583 -0.192723,-0.6883115 -0.0707,-0.1684815 -0.08269,-0.1738026 -0.391634,-0.1738026 -0.366927,0 -0.426476,0.052959 -0.568575,0.5056317 -0.04658,0.1483847 -0.105959,0.317925 -0.13195,0.3767505 -0.02599,0.058826 -0.109549,0.2994752 -0.185683,0.5347771 -0.07614,0.2353018 -0.159797,0.466973 -0.185916,0.5148242 -0.02612,0.047856 -0.06387,0.1802096 -0.08389,0.294128 -0.02002,0.1139176 -0.06664,0.2556072 -0.103601,0.3148656 -0.03696,0.059256 -0.08466,0.18722 -0.105994,0.2843568 -0.02134,0.097142 -0.07247,0.2411793 -0.113639,0.3200857 -0.04117,0.078904 -0.07499,0.1988032 -0.07518,0.2664424 -1.61e-4,0.06764 -0.03555,0.1910857 -0.07859,0.2743237 -0.09647,0.186546 -0.227189,0.540061 -0.318242,0.860628 -0.03778,0.13302 -0.09432,0.289442 -0.125643,0.347605 -0.121037,0.224766 -0.332365,0.724687 -0.36622,0.866334 -0.01953,0.08169 -0.05634,0.175187 -0.08183,0.20776 -0.02548,0.03258 -0.09436,0.195017 -0.153059,0.360975 -0.0587,0.165962 -0.155217,0.438924 -0.214479,0.606576 -0.05926,0.167658 -0.128777,0.318064 -0.154479,0.334236 -0.0257,0.01618 -0.07201,0.113634 -0.102894,0.216579 -0.194017,0.64662 -0.608843,1.573164 -0.7133312,1.593288 -0.086116,0.01658 -0.2882592,-0.34615 -0.4706768,-0.8446 -0.077409,-0.211531 -0.2214555,-0.589736 -0.3157043,-0.828905 -0.034768,-0.08824 -0.090536,-0.232628 -0.1239216,-0.320865 -0.033384,-0.08824 -0.1066072,-0.211896 -0.1627152,-0.274791 -0.056112,-0.0629 -0.094328,-0.147887 -0.084932,-0.188867 0.0094,-0.04098 -0.021616,-0.17001 -0.06892,-0.286731 C 8.6604899,12.629585 8.5915595,12.449862 8.5546107,12.346917 8.4135083,11.953787 8.2366787,11.494536 7.9780678,10.849542 7.8306538,10.481883 7.6694148,10.03668 7.6197581,9.8602047 7.5701014,9.6837279 7.4979145,9.4551111 7.4593426,9.3521662 7.4207713,9.2492214 7.3222701,8.9484094 7.2404513,8.683695 7.1586326,8.4189806 7.037689,8.0580054 6.9716874,7.8815293 6.9056863,7.7050529 6.7868182,7.3681433 6.7075363,7.1328414 6.4898693,6.4868254 6.4694103,6.4643701 6.0984906,6.4643701 c -0.3442152,0 -0.4060386,0.041542 -0.4897313,0.3290536 C 5.5192583,7.1008884 5.2234325,8.3511118 5.1804659,8.6034782 5.1579319,8.7358358 5.1114159,8.9403878 5.0770988,9.058039 5.0427808,9.1756894 4.9966868,9.3802422 4.974666,9.5125991 c -0.022021,0.1323576 -0.07831,0.38504 -0.1250881,0.5615159 -0.075511,0.284876 -0.2573417,1.105764 -0.325752,1.470637 -0.013786,0.07354 -0.063761,0.290116 -0.1110529,0.481299 -0.1010461,0.408485 -0.2793964,1.188345 -0.3240968,1.417159 -0.017238,0.08824 -0.06552,0.280759 -0.1072944,0.427822 -0.041774,0.147064 -0.1372099,0.483973 -0.2120792,0.748688 -0.07487,0.264715 -0.1361206,0.537825 -0.1361142,0.606913 7e-6,0.06908 -0.032774,0.20144 -0.072845,0.294128 -0.084042,0.194386 -0.3263274,0.971225 -0.4069841,1.304914 -0.030215,0.125005 -0.079676,0.329557 -0.1099143,0.454561 -0.030238,0.125004 -0.089271,0.315187 -0.131184,0.422629 -0.041913,0.107442 -0.1254331,0.480449 -0.1855993,0.828905 -0.060166,0.348455 -0.1324428,0.741848 -0.1606144,0.874205 -0.080976,0.380448 -0.069005,0.479472 0.064446,0.533111 0.1687762,0.06784 0.2332227,0.06526 0.29183,-0.0117 z M 22.105702,18.857828 c 0.0389,-0.09559 0.100307,-0.342257 0.136476,-0.548146 0.03617,-0.205889 0.09749,-0.470604 0.136266,-0.588255 0.03878,-0.117651 0.122953,-0.454561 0.187057,-0.748688 0.0641,-0.294127 0.16526,-0.715264 0.224788,-0.93586 0.05953,-0.220595 0.129628,-0.509043 0.15578,-0.640989 0.08265,-0.417025 0.110241,-0.427853 1.226865,-0.481577 0.541774,-0.02606 1.911544,-0.0613 3.043935,-0.0783 1.13239,-0.017 2.255133,-0.04519 2.494984,-0.06266 0.41629,-0.0303 0.439805,-0.02601 0.517853,0.09449 0.04497,0.06942 0.143238,0.439068 0.218376,0.821434 0.07514,0.382366 0.173588,0.863665 0.218777,1.069554 0.04519,0.205889 0.128964,0.627026 0.186167,0.93586 0.221831,1.197644 0.25046,1.283465 0.428149,1.283465 0.220765,0 0.234264,-0.126924 0.08387,-0.788625 -0.07857,-0.345696 -0.175288,-0.74886 -0.214935,-0.895923 -0.03965,-0.147064 -0.136774,-0.532103 -0.215841,-0.855643 -0.07906,-0.32354 -0.192234,-0.780774 -0.251485,-1.016077 -0.05925,-0.235302 -0.149491,-0.608309 -0.200531,-0.828904 -0.05104,-0.220596 -0.1102,-0.440266 -0.131463,-0.488155 C 30.32953,14.056939 30.26808,13.81629 30.214241,13.570051 30.160401,13.323814 30.02735,12.785438 29.918568,12.373659 29.809785,11.961881 29.616263,11.215866 29.488518,10.71585 29.360775,10.215832 29.204754,9.6142087 29.141807,9.378907 29.078863,9.1436046 28.947004,8.6382406 28.848795,8.255875 28.750584,7.8735076 28.617044,7.3801758 28.552039,7.1595803 28.487034,6.9389847 28.367222,6.5178478 28.285791,6.2237204 28.204359,5.929593 28.111622,5.6227647 28.079708,5.5418796 L 28.021688,5.3948159 H 27.4428 c -0.564136,0 -1.846422,0.079634 -2.187505,0.1358494 -0.148218,0.024429 -0.180023,0.060462 -0.247458,0.2803302 -0.07934,0.258677 -0.166839,0.5769602 -0.223725,0.8138077 -0.01766,0.073532 -0.06866,0.2660515 -0.113334,0.4278216 -0.04467,0.1617701 -0.198977,0.7513618 -0.342901,1.3102038 -0.24229,0.940796 -0.36532,1.4084641 -0.724519,2.7541014 -0.274714,1.029136 -0.404401,1.532233 -0.480517,1.864062 -0.04289,0.186974 -0.09362,0.365264 -0.11274,0.396201 -0.01912,0.03094 -0.06532,0.190803 -0.102668,0.355257 -0.06404,0.281999 -0.120072,0.496743 -0.398953,1.529003 -0.132973,0.492187 -0.184823,0.702039 -0.260306,1.053526 -0.02969,0.138251 -0.07599,0.294673 -0.10289,0.347606 -0.0269,0.05294 -0.137668,0.457218 -0.246151,0.898409 -0.370279,1.505905 -0.368943,1.470637 -0.05572,1.470637 0.165984,0 0.201027,-0.02322 0.262293,-0.173803 z m 1.367727,-4.357738 c -0.174496,-0.03243 -0.209782,-0.09761 -0.178849,-0.330342 0.03239,-0.243719 0.297277,-1.443443 0.502818,-2.277391 0.08699,-0.352953 0.184506,-0.750025 0.216697,-0.882382 0.0535,-0.220002 0.100067,-0.402339 0.348219,-1.3636815 0.04555,-0.176476 0.142132,-0.5254185 0.214617,-0.7754265 0.234167,-0.8076576 0.348793,-1.1981842 0.423808,-1.4438982 0.169423,-0.5549542 0.341909,-1.1590384 0.367807,-1.2881443 0.01526,-0.076104 0.07815,-0.2024452 0.139756,-0.280758 l 0.111999,-0.1423844 h 0.935493 c 0.552827,0 0.978539,0.023038 1.040722,0.056318 0.115011,0.061553 0.392149,0.5927896 0.452431,0.867248 0.02082,0.094768 0.06853,0.244591 0.106038,0.3329468 0.05736,0.1351168 0.34301,1.0273442 0.642115,2.0056277 0.04046,0.1323576 0.122066,0.4572345 0.181328,0.7219489 0.05926,0.2647152 0.213082,0.9265005 0.341819,1.4706365 0.300328,1.269389 0.377014,1.61001 0.521523,2.316441 0.106884,0.522498 0.110307,0.586431 0.03541,0.661326 -0.129609,0.129609 -0.450451,0.169284 -1.858147,0.229778 -0.720612,0.03097 -1.863698,0.07993 -2.540192,0.108805 -1.259157,0.05374 -1.769695,0.05714 -2.005414,0.01334 z m 3.395835,-1.112416 c 0.382366,-0.01332 0.824616,-0.03846 0.982779,-0.05588 l 0.287568,-0.03167 -0.03501,-0.302801 c -0.01925,-0.166538 -0.06905,-0.447189 -0.110673,-0.623665 -0.04162,-0.176477 -0.149744,-0.657776 -0.240286,-1.069554 -0.230673,-1.049083 -0.913564,-3.1819234 -1.018787,-3.1819234 -0.07077,0 -0.146469,0.1295072 -0.187417,0.320652 -0.02203,0.1028272 -0.07159,0.2592496 -0.110134,0.3476056 -0.249758,0.5725216 -0.884487,2.4965848 -0.961069,2.9132988 -0.08698,0.473284 -0.09073,1.556999 -0.0057,1.642039 0.06092,0.06093 0.388318,0.116121 0.543083,0.09157 0.08824,-0.01401 0.473277,-0.03635 0.855643,-0.04966 z m 7.506797,6.625072 c -0.09245,-0.111405 -0.08656,0.417217 -0.09459,-8.488562 -0.0046,-5.0756914 0.01093,-7.4484631 0.04896,-7.4942871 0.08446,-0.1017686 0.468186,-0.1293615 2.218297,-0.1595143 0.882382,-0.015202 2.058542,-0.040237 2.613687,-0.05563 1.140868,-0.031637 1.298947,-0.00471 2.038874,0.3472494 0.235302,0.1119262 0.541997,0.2566914 0.681544,0.3217042 0.139548,0.065007 0.267591,0.140641 0.284542,0.1680698 0.01695,0.027423 0.143426,0.1100945 0.281055,0.1837066 0.543473,0.290678 1.36037,1.0334674 1.732586,1.5754104 0.500224,0.7283237 0.707297,1.2233989 0.82572,1.9741504 0.137378,0.8709112 0.0039,1.6428026 -0.421601,2.4377596 -0.273078,0.510209 -0.882995,1.232137 -1.44528,1.710704 -0.416477,0.354471 -0.42787,0.40043 -0.250588,1.010894 0.18692,0.643647 0.565868,1.733565 0.634034,1.823585 0.02245,0.02964 0.07842,0.15016 0.124371,0.267811 0.04596,0.11765 0.238851,0.538788 0.428656,0.93586 0.189804,0.397071 0.411663,0.866338 0.493018,1.042815 0.08136,0.176476 0.244857,0.5236 0.363334,0.771389 0.118478,0.247789 0.217787,0.535178 0.220687,0.638646 0.0048,0.172049 -0.01072,0.192088 -0.1819,0.234554 -0.367305,0.09111 -0.992002,0.262091 -1.149771,0.314676 -0.08824,0.02941 -0.473277,0.135528 -0.855643,0.23582 -0.382366,0.100292 -0.7465,0.196964 -0.809187,0.214831 -0.143356,0.04085 -0.280351,-0.09903 -0.545243,-0.556713 -0.108032,-0.186667 -0.232521,-0.393396 -0.27664,-0.459403 -0.206465,-0.308893 -0.525105,-0.804674 -0.814508,-1.267304 -0.224141,-0.358306 -0.266342,-0.424324 -0.482139,-0.754255 -0.110401,-0.168791 -0.200729,-0.320171 -0.200729,-0.336402 0,-0.01623 -0.04434,-0.09471 -0.09852,-0.174406 -0.05418,-0.0797 -0.188706,-0.286159 -0.298931,-0.458807 l -0.200409,-0.313914 -0.239175,0.02696 c -0.574634,0.06478 -0.969539,0.897115 -0.742673,1.565335 0.04957,0.146005 0.171639,0.437235 0.271265,0.647177 0.290326,0.611801 0.342377,1.349494 0.119249,1.690037 -0.110484,0.168621 -0.18196,0.179589 -1.836762,0.28194 -0.73286,0.04532 -1.508686,0.105842 -1.724056,0.13448 -0.533556,0.07095 -0.626406,0.06621 -0.711531,-0.03637 z m 2.204062,-1.395567 c 0.0026,-0.05147 -0.0034,-0.526756 -0.01337,-1.056185 -0.0099,-0.529429 -0.01721,-1.401116 -0.01621,-1.937075 0.0023,-1.240292 -0.0205,-1.200248 0.801495,-1.406533 0.322911,-0.08104 0.7315,-0.200061 0.907976,-0.26449 0.176476,-0.06443 0.453224,-0.148294 0.614994,-0.186354 0.16177,-0.03806 0.390387,-0.09438 0.508038,-0.125153 0.37851,-0.099 0.760849,-0.129529 0.872697,-0.06966 0.106824,0.05717 0.344663,0.436474 0.41444,0.660952 0.03349,0.107731 0.664139,1.407442 0.810571,1.670509 0.03274,0.05882 0.10666,0.203216 0.164257,0.320867 0.0576,0.117651 0.142334,0.286105 0.188306,0.374344 0.04597,0.08824 0.147644,0.291057 0.225941,0.450715 0.0783,0.159653 0.161724,0.328107 0.185396,0.374344 0.02367,0.04623 0.158561,0.321369 0.299754,0.611416 0.237484,0.487845 0.350199,0.631471 0.431652,0.550019 0.08495,-0.08496 -0.187869,-0.712565 -0.851901,-1.959755 -0.454363,-0.853386 -0.711287,-1.363554 -0.78103,-1.550854 -0.309652,-0.8316 -0.374354,-1.077142 -0.40949,-1.553997 l -0.03766,-0.511178 0.635239,-0.638594 c 0.723859,-0.727676 1.152465,-1.370259 1.390345,-2.084459 0.124252,-0.3730437 0.141878,-0.5120485 0.142149,-1.1210582 3.21e-4,-0.6804392 -0.100671,-1.2561752 -0.234857,-1.3391084 -0.02748,-0.016985 -0.04997,-0.076949 -0.04997,-0.1332558 0,-0.099945 -0.208135,-0.586859 -0.273575,-0.6400052 C 42.4872,7.0379184 42.42217,6.9268239 42.3608,6.805745 42.152934,6.3956512 41.886507,6.1636381 41.041207,5.6566107 40.515949,5.3415467 39.480823,4.9518868 38.928487,4.8613009 38.501485,4.7912718 36.275463,4.7228311 36.073494,4.7735226 l -0.146526,0.036777 0.0317,3.6212428 c 0.01743,1.9916856 0.04242,4.2717776 0.05551,5.0668676 0.0131,0.795096 0.02566,2.258289 0.02791,3.251541 0.0022,0.993258 0.01746,1.840772 0.03381,1.883368 0.0197,0.05135 0.10889,0.07745 0.264647,0.07745 0.186316,0 0.235891,-0.01937 0.239583,-0.09359 z m 0.0575,-4.832486 c -0.02621,-0.07016 -0.06406,-1.390982 -0.08413,-2.935151 -0.02006,-1.5441686 -0.04874,-3.4383384 -0.06374,-4.2092624 -0.0197,-1.0127769 -0.01,-1.4340422 0.03515,-1.5183177 0.06154,-0.1150038 0.07526,-0.1161642 0.978978,-0.082981 0.938066,0.034445 1.515558,0.1446841 2.306975,0.4403837 0.803072,0.3000474 2.252737,1.6094971 2.548805,2.3022741 0.03605,0.084356 0.103006,0.1980493 0.148791,0.2526503 0.140953,0.168112 0.106919,1.1179512 -0.06374,1.7788233 -0.227073,0.8793437 -0.538446,1.4624057 -1.203621,2.2538607 -0.302271,0.359653 -0.994655,0.851904 -1.599428,1.137112 -0.692969,0.326802 -1.745708,0.605416 -2.543369,0.673124 -0.400848,0.03402 -0.414426,0.0313 -0.460679,-0.09252 z m 2.467311,-2.258771 c 0.27061,-0.238248 0.53483,-0.481877 0.587154,-0.541408 0.228985,-0.260511 0.538965,-0.755865 0.696163,-1.1124805 0.154098,-0.3495784 0.170279,-0.4369448 0.170764,-0.9220089 5.35e-4,-0.5297232 -0.0018,-0.5392744 -0.199,-0.8364552 -0.281859,-0.4246401 -0.861081,-0.8842917 -1.404793,-1.1147967 -0.147064,-0.06235 -0.36775,-0.1632727 -0.490414,-0.22428 -0.33651,-0.1673585 -0.392009,-0.118726 -0.391751,0.3433001 7.27e-4,1.3047006 0.1699,4.7406592 0.238907,4.8523162 0.06622,0.107132 0.342614,-0.0477 0.79297,-0.444187 z m 12.283491,7.986786 c -0.06193,-0.03827 -0.07385,-0.164163 -0.05921,-0.625472 0.0988,-3.112926 0.133662,-7.065421 0.08012,-9.0849265 -0.06545,-2.4689748 -0.09738,-2.9254926 -0.211231,-3.0199824 -0.07192,-0.059681 -0.828905,-0.038274 -3.017984,0.085356 -2.466162,0.1392719 -2.647396,0.1394324 -2.739914,0.00246 -0.04913,-0.072735 -0.0435,-2.8985468 0.0061,-3.0762431 0.02327,-0.083332 0.09361,-0.1465433 0.195211,-0.1754223 0.08736,-0.024833 1.073298,-0.040684 2.190982,-0.035229 2.649796,0.012934 5.153172,0.00981 6.123194,-0.00766 1.165787,-0.020983 3.855138,-0.147813 4.492127,-0.2118487 1.049297,-0.1054843 1.862169,-0.1615204 2.343057,-0.1615204 0.571152,0 0.527156,-0.072509 0.567825,0.9358599 0.08866,2.1980985 0.09146,2.4933435 0.02442,2.5741216 -0.06855,0.082602 -0.53429,0.08211 -4.794276,-0.00508 -0.822813,-0.01684 -0.989444,-0.00714 -1.058217,0.061638 -0.0715,0.0715 -0.08028,0.4509561 -0.07074,3.0571604 0.006,1.6365405 0.0283,3.2402455 0.04959,3.5637865 0.126052,1.915716 0.168391,2.481799 0.235991,3.155184 0.149572,1.489927 0.213045,2.751343 0.142021,2.822393 -0.04654,0.04656 -0.492101,0.0757 -1.546735,0.101161 -0.814744,0.01967 -1.794883,0.04845 -2.178083,0.06396 -0.3832,0.01551 -0.731624,0.0066 -0.774267,-0.01972 z m 2.495398,-1.350191 c 0.03094,-0.05006 0.02642,-1.695035 -0.0079,-2.874326 -0.04143,-1.423432 -0.08182,-3.18373 -0.105496,-4.599083 -0.01452,-0.8676745 -0.04184,-2.4114426 -0.06072,-3.430594 -0.03431,-1.8525854 -0.0343,-1.8530186 0.07954,-1.913935 0.07765,-0.041563 0.832167,-0.069291 2.372864,-0.087201 1.242453,-0.01445 2.531443,-0.040044 2.864422,-0.056884 0.647588,-0.032744 0.694055,-0.055916 0.62932,-0.3138339 l -0.03353,-0.1335766 -1.269079,0.00171 c -0.697991,9.12e-4 -2.063218,0.024194 -3.033839,0.051691 -0.97062,0.027498 -3.184597,0.076142 -4.919949,0.1080945 -2.499349,0.046018 -3.170217,0.072938 -3.227524,0.1295176 -0.09911,0.097843 -0.02967,0.2897529 0.118271,0.3268825 0.06546,0.016428 1.352747,0.00806 2.860636,-0.018594 1.507895,-0.026658 2.79837,-0.037622 2.867725,-0.024365 0.07273,0.013899 0.137989,0.072762 0.154188,0.1390474 0.01545,0.063216 0.05298,2.1002996 0.08339,4.5268502 0.07942,6.3361243 0.109891,8.0626363 0.143849,8.1511263 0.04969,0.129485 0.406656,0.142384 0.483845,0.0175 z m 8.438301,1.091202 c -0.05726,-0.01021 -0.12817,-0.0415 -0.157583,-0.06953 -0.03477,-0.03314 -0.05492,-1.644809 -0.05761,-4.60726 -0.0039,-4.294763 -0.05548,-6.5402648 -0.18306,-7.9679481 -0.02945,-0.3295457 -0.06938,-1.1457974 -0.08872,-1.813889 l -0.03518,-1.214714 0.128812,-0.04877 c 0.07085,-0.026823 1.332059,-0.05169 2.802697,-0.055258 2.870121,-0.00697 3.388566,-0.022354 5.000165,-0.1484151 1.376827,-0.1076977 2.377977,-0.1205901 2.46767,-0.031778 0.08773,0.086856 0.134571,2.9377305 0.0503,3.0612533 -0.0465,0.068168 -0.205584,0.0762 -1.059067,0.053478 -1.383345,-0.03683 -4.880402,-0.02214 -5.112896,0.021477 -0.11317,0.02123 -0.202542,0.07403 -0.220366,0.1301861 -0.01649,0.051964 -0.04008,0.6347002 -0.05243,1.2949788 -0.02096,1.1213632 0.0099,1.7667961 0.08811,1.8450497 0.05344,0.05344 1.459872,0.03692 2.100647,-0.024672 0.764496,-0.073488 1.466273,-0.084115 1.527249,-0.023144 0.02658,0.026576 0.06452,0.6979803 0.08432,1.4920173 0.02785,1.11655 0.02072,1.472268 -0.03146,1.569773 l -0.06748,0.12608 -0.756314,-0.04732 c -0.865408,-0.05414 -2.517292,-0.05326 -2.735353,0.0014 l -0.146764,0.03683 0.0374,0.812828 c 0.02057,0.447058 0.06142,0.969252 0.09078,1.160435 0.02936,0.191182 0.07189,0.547125 0.0945,0.790978 0.02262,0.243858 0.06906,0.471326 0.103228,0.505487 0.07622,0.07622 2.081951,0.09933 3.19032,0.03677 0.411778,-0.02325 1.246218,-0.07108 1.854312,-0.106303 0.608095,-0.03522 1.165606,-0.04898 1.238907,-0.03058 0.203665,0.05111 0.249137,0.389836 0.249137,1.855842 v 1.282155 l -0.147063,0.06505 c -0.112031,0.04954 -1.338846,0.06516 -5.15008,0.06553 -2.751652,0 -5.049857,-0.0078 -5.107121,-0.01808 z M 67.96445,17.96127 c 1.307541,-0.02883 2.421942,-0.06657 2.476457,-0.08387 0.07022,-0.02229 0.09431,-0.07298 0.08263,-0.17393 l -0.01648,-0.142476 -2.97967,0.02135 -2.979666,0.02136 -0.04994,-0.131357 c -0.02746,-0.07224 -0.05418,-0.478926 -0.05937,-0.903736 -0.0052,-0.424811 -0.01718,-0.952871 -0.02665,-1.173467 -0.01612,-0.375392 -0.0511,-1.322102 -0.109891,-2.974831 -0.01859,-0.522392 -0.0078,-0.715858 0.04187,-0.756068 0.10518,-0.08502 0.501289,-0.115015 1.965311,-0.148807 0.750025,-0.01731 1.383767,-0.05112 1.408319,-0.07513 0.02454,-0.02401 0.03658,-0.100576 0.02674,-0.170151 l -0.0179,-0.12649 -1.665257,-0.01412 c -1.365308,-0.01158 -1.676671,-0.02789 -1.728652,-0.09051 -0.07266,-0.08754 -0.148572,-2.5441858 -0.140544,-4.5479263 l 0.005,-1.2299873 0.481299,-0.03967 c 0.264715,-0.021819 1.585726,-0.057916 2.935584,-0.080217 2.204966,-0.036429 2.459974,-0.049595 2.51035,-0.1296513 0.0411,-0.065312 0.0357,-0.1136455 -0.02023,-0.181038 -0.07102,-0.08558 -0.289672,-0.090046 -3.159858,-0.064574 -1.695955,0.015049 -3.113499,0.045868 -3.150099,0.068489 -0.08411,0.051986 -0.04002,3.8629625 0.108254,9.3574379 0.02858,1.058859 0.05605,2.250075 0.06106,2.647147 0.005,0.397072 0.02004,0.824225 0.03341,0.949229 l 0.0243,0.22728 0.783176,-9.6e-4 c 0.430753,-5.35e-4 1.852982,-0.02453 3.160517,-0.05335 z m 7.986553,0.965299 c -0.966957,-0.01714 -1.635958,-0.0501 -1.66705,-0.08211 -0.07534,-0.07759 -0.156582,-1.109309 -0.19369,-2.459974 -0.05564,-2.024816 -0.07923,-2.646965 -0.134893,-3.556268 -0.0297,-0.48531 -0.07733,-1.580266 -0.105832,-2.433236 C 73.82103,9.5420119 73.774014,8.627543 73.745041,8.3628286 73.716074,8.0981142 73.666907,7.3761649 73.635783,6.7584975 73.604659,6.1408299 73.556588,5.4549783 73.528966,5.2343828 73.50134,5.0137873 73.4719,4.4723255 73.463541,4.0311354 l -0.0152,-0.8021656 1.203249,-0.016847 c 1.333435,-0.01867 2.888406,0.03134 2.993473,0.096273 0.0487,0.030102 0.08044,0.3428809 0.112047,1.1043179 0.07509,1.8087391 0.159032,3.2026088 0.202724,3.3659671 0.08776,0.328123 0.184872,0.1991082 0.848482,-1.127139 0.449914,-0.8991634 0.816701,-1.6711516 0.816701,-1.7189339 0,-0.022246 0.110902,-0.2702763 0.246452,-0.5511787 0.135543,-0.2808985 0.282119,-0.5949544 0.325711,-0.6978991 0.238432,-0.5630657 0.263848,-0.5795089 0.747456,-0.483594 0.466592,0.092543 1.741144,0.5052793 2.236648,0.7242909 0.08824,0.039002 0.401088,0.1481941 0.695208,0.2426502 0.294128,0.094457 0.564864,0.195746 0.601624,0.2250871 0.10172,0.081179 0.08564,0.8162196 -0.02488,1.1365457 C 84.286884,6.0107399 83.84886,6.5734698 83.234748,7.0938988 83.087684,7.2185285 82.9321,7.3504741 82.889012,7.3871064 82.845892,7.4237384 82.713556,7.5170518 82.594884,7.5944715 82.29894,7.787526 81.64042,8.4414518 81.460316,8.7211078 81.157756,9.190915 81.106828,9.3529094 81.08122,9.9269663 l -0.0244,0.5480607 0.410384,0.601709 c 0.225712,0.330942 0.540528,0.782197 0.699584,1.002793 0.159056,0.220596 0.378808,0.53344 0.488336,0.69521 0.109528,0.16177 0.231352,0.330225 0.27072,0.374344 0.03936,0.04412 0.256592,0.332899 0.48272,0.641733 0.615392,0.840466 0.618,0.843771 1.854496,2.343558 0.178616,0.216644 0.377992,0.473877 0.443072,0.571629 0.06512,0.09775 0.143288,0.193162 0.1738,0.212023 0.03056,0.01886 0.05552,0.10695 0.05552,0.19576 0,0.348863 -0.672528,0.82382 -1.781928,1.258432 -1.007336,0.394634 -1.506544,0.552457 -1.747464,0.552457 -0.182168,0 -0.215616,-0.02516 -0.397416,-0.298983 -0.109184,-0.164444 -0.260824,-0.41111 -0.336976,-0.548146 -0.07616,-0.137042 -0.218848,-0.3549 -0.317096,-0.484134 -0.09825,-0.129234 -0.17864,-0.265891 -0.17864,-0.303678 0,-0.03778 -0.03024,-0.100506 -0.0672,-0.139374 -0.03696,-0.03886 -0.163312,-0.222152 -0.28076,-0.407307 -0.11744,-0.185151 -0.286056,-0.449866 -0.374696,-0.588255 -0.08865,-0.138384 -0.24236,-0.396003 -0.341584,-0.572479 -0.09922,-0.176477 -0.237269,-0.38889 -0.306763,-0.472032 -0.06949,-0.08314 -0.126347,-0.175663 -0.126347,-0.2056 0,-0.02994 -0.105768,-0.214596 -0.23504,-0.41035 -0.129276,-0.195756 -0.291715,-0.452973 -0.360974,-0.571603 -0.283084,-0.484839 -0.345461,-0.564173 -0.468449,-0.595848 -0.191043,-0.0492 -0.288651,0.04172 -0.38936,0.362691 -0.10618,0.338401 -0.131245,1.567111 -0.04146,2.032506 0.03056,0.158433 0.09062,0.600902 0.133464,0.983267 0.04284,0.382366 0.101271,0.863666 0.12985,1.069555 0.02858,0.205889 0.05274,0.546007 0.0537,0.755821 0.002,0.44524 -0.0085,0.45309 -0.586506,0.435218 -0.191183,-0.0059 -1.07441,-0.02363 -1.962723,-0.03938 z m 0.472498,-1.512639 c 0.0039,-0.03677 0.0015,-1.005402 -0.0054,-2.15252 l -0.0126,-2.085673 0.366424,-0.457422 c 0.536023,-0.669134 0.572864,-0.755795 0.197867,-0.46547 -0.446908,0.346 -0.521964,0.378108 -0.622053,0.266153 -0.08315,-0.093 -0.18853,-1.188366 -0.309822,-3.2203094 -0.02724,-0.4558976 -0.07519,-1.213944 -0.10657,-1.6845478 -0.03139,-0.4706039 -0.078,-1.2527154 -0.103588,-1.7380256 -0.07317,-1.3877999 -0.103442,-1.6451469 -0.197787,-1.6813503 -0.184044,-0.070626 -0.229692,0.067827 -0.229692,0.6966814 0,0.5236912 -0.01278,0.613138 -0.09359,0.6546955 -0.05147,0.026471 -0.120057,0.038552 -0.152405,0.026841 -0.093,-0.03367 -0.194141,0.1266245 -0.155904,0.2470883 0.02584,0.08142 0.08034,0.1095224 0.212376,0.1095224 0.221873,0 0.225264,0.016113 0.269988,1.283465 0.01816,0.5147229 0.07918,1.8984583 0.135576,3.0749675 0.0564,1.17651 0.127453,2.716667 0.157888,3.422573 0.03043,0.705906 0.0679,1.379725 0.08328,1.497376 0.01537,0.117651 0.04917,0.645957 0.0751,1.174012 0.04044,0.823338 0.06066,0.969979 0.141988,1.029446 0.120866,0.08838 0.339578,0.08994 0.348932,0.0025 z m 7.265315,-0.267388 c -5.36e-4,-0.06188 -0.24024,-0.489343 -0.42732,-0.761806 C 83.0388,16.060399 81.890688,14.353385 81.844336,14.277709 81.58092,13.847588 81.52484,13.760644 81.495816,13.737338 81.477496,13.722638 81.3454,13.542145 81.202272,13.336255 81.059136,13.130366 80.8734,12.865651 80.789528,12.748001 80.705658,12.630349 80.498248,12.329537 80.328632,12.079529 79.818998,11.32836 79.400032,10.723543 79.295643,10.588308 79.114574,10.35375 79.178099,9.8893071 79.479222,9.2461254 79.728791,8.7130486 80.066048,8.2666542 80.7788,7.5259881 81.369128,6.9125453 81.455816,6.7964131 81.710056,6.278396 81.963216,5.7625821 81.99312,5.6635574 82.018496,5.2568862 l 0.02808,-0.4503251 h -0.135232 c -0.148168,0 -0.356552,0.291507 -0.688128,0.9625988 -0.09446,0.1911828 -0.204032,0.3857293 -0.243504,0.4323244 -0.06848,0.080853 -0.353416,0.5962337 -0.943576,1.7067839 -0.148491,0.2794212 -0.373585,0.6524276 -0.500204,0.8289044 -0.462368,0.6444168 -1.622214,2.3898384 -1.622214,2.4412304 0,0.02906 0.190167,-0.08116 0.422597,-0.24496 0.522387,-0.368135 0.638679,-0.377826 0.846766,-0.07054 0.08465,0.125005 0.242773,0.353376 0.351391,0.507488 0.108619,0.154117 0.197488,0.293464 0.197488,0.309662 0,0.0162 0.04587,0.09466 0.101929,0.174354 0.08469,0.120394 1.084087,1.663477 1.261751,1.94816 0.02944,0.04713 0.173808,0.263142 0.320872,0.480022 0.147064,0.216884 0.291448,0.431656 0.320864,0.477272 0.02944,0.04561 0.17088,0.261356 0.314376,0.479433 0.143488,0.218072 0.39484,0.601047 0.558552,0.851055 0.65688,1.003113 0.755464,1.123032 0.923272,1.123032 0.08921,0 0.15552,-0.02856 0.155232,-0.06685 z m 31.140094,1.477674 c -0.25856,-0.135838 -0.589,-0.306555 -0.7343,-0.37937 -0.1453,-0.07282 -0.33782,-0.186338 -0.42782,-0.252265 -0.09,-0.06594 -0.2777,-0.161824 -0.41711,-0.213099 -0.13941,-0.05127 -0.26869,-0.117859 -0.28731,-0.147978 -0.0405,-0.06554 -0.55301,-0.309892 -0.65152,-0.310636 -0.0828,-6.42e-4 -0.0408,0.313615 0.0739,0.553404 0.0824,0.172315 0.0306,0.328668 -0.12493,0.377103 -0.18755,0.05839 -1.57092,0.139625 -2.95973,0.173792 -1.19157,0.02932 -1.42997,0.02278 -1.4702,-0.04025 -0.10506,-0.16462 -0.18105,-0.463036 -0.18257,-0.716969 -8e-4,-0.147064 -0.0357,-0.411779 -0.0773,-0.588256 -0.0416,-0.176476 -0.10441,-0.536953 -0.13956,-0.801058 -0.0757,-0.568917 -0.281,-1.308434 -0.38084,-1.37173 -0.039,-0.0247 -0.84396,-0.04527 -1.78892,-0.04572 -1.44337,-6.95e-4 -1.7285,0.01169 -1.78304,0.07742 -0.0357,0.04303 -0.0969,0.313764 -0.13593,0.601624 -0.039,0.28786 -0.0979,0.703874 -0.13071,0.924469 -0.0328,0.220596 -0.082,0.593603 -0.10939,0.828905 -0.0746,0.641743 -0.14947,0.942774 -0.25373,1.01943 -0.12716,0.09349 -0.67367,0.124944 -2.4736,0.142346 l -1.524115,0.01474 0.01768,-0.427822 c 0.0097,-0.235302 0.04944,-0.572212 0.08822,-0.748688 0.0388,-0.176476 0.08692,-0.477288 0.106912,-0.668471 0.02,-0.191183 0.05776,-0.431833 0.08398,-0.534777 0.05336,-0.209584 0.238872,-1.232779 0.34908,-1.925197 0.03976,-0.250009 0.08756,-0.514724 0.106144,-0.588256 0.01856,-0.07354 0.0672,-0.338246 0.108016,-0.588254 0.0408,-0.250009 0.10028,-0.574886 0.13212,-0.721949 0.03184,-0.147064 0.09139,-0.459909 0.132344,-0.69521 0.07736,-0.44455 0.137759,-0.755919 0.269679,-1.390421 0.0733,-0.3524447 0.17474,-0.9249128 0.29386,-1.6578088 0.0286,-0.176476 0.0897,-0.4893208 0.13552,-0.6952098 0.0458,-0.2058892 0.11572,-0.5788962 0.15526,-0.8289045 0.0395,-0.2500083 0.13654,-0.815535 0.21558,-1.2567261 0.15468,-0.8633976 0.30268,-1.7108027 0.42392,-2.4273563 0.0418,-0.2467751 0.0979,-0.4706964 0.12484,-0.4976026 0.10581,-0.1058078 0.8377,-0.1442128 3.38992,-0.1778824 2.64873,-0.034942 2.65728,-0.034705 2.75252,0.076517 0.0526,0.061362 0.12338,0.2379592 0.15742,0.3924371 0.0341,0.1544783 0.10391,0.4252589 0.15526,0.6017353 0.0514,0.1764765 0.12211,0.4772886 0.15723,0.6684703 0.0351,0.1911828 0.0887,0.3957351 0.11912,0.4545605 0.0304,0.058826 0.0873,0.2633777 0.12652,0.4545605 0.0392,0.1911829 0.11497,0.4675931 0.1684,0.6142397 0.0534,0.1466465 0.0971,0.3461451 0.0971,0.4433194 0,0.09718 0.0488,0.2724261 0.10853,0.3894407 0.0597,0.1170147 0.16941,0.5015514 0.2438,0.854531 0.0744,0.3529743 0.1738,0.7315592 0.22088,0.8413008 0.0471,0.109736 0.10444,0.2957856 0.12745,0.413436 0.10304,0.5268784 0.15813,0.7415273 0.20471,0.7976521 0.0462,0.055688 0.17528,0.4667961 0.35398,1.1275451 0.0398,0.147064 0.14377,0.483973 0.2311,0.748688 0.25325,0.76772 0.53157,1.684537 0.61688,2.032153 0.0816,0.33231 0.19915,0.685134 0.32081,0.962598 0.0386,0.08824 0.10151,0.280758 0.13959,0.427822 0.0381,0.147064 0.0884,0.292438 0.11172,0.323054 0.0234,0.03062 0.067,0.165305 0.097,0.299314 0.03,0.134005 0.10386,0.358552 0.16406,0.498985 0.10159,0.237018 0.12059,0.253115 0.26467,0.224296 0.14906,-0.02981 1.38484,-0.828642 1.66125,-1.073864 0.0735,-0.06524 0.20381,-0.162225 0.28951,-0.215537 0.72328,-0.449914 1.09462,-1.272395 1.11139,-2.461622 0.008,-0.553034 -0.0426,-0.687643 -0.38042,-1.014685 -0.12007,-0.116267 -0.21933,-0.236592 -0.22058,-0.267389 -0.002,-0.03079 -0.15759,-0.248511 -0.34745,-0.483813 -0.18985,-0.235302 -0.43394,-0.559976 -0.54242,-0.7215 -0.19664,-0.2927787 -0.64019,-0.858798 -0.71276,-0.90957 -0.021,-0.014704 -0.14632,-0.1959792 -0.27842,-0.4028368 -0.13211,-0.2068512 -0.27539,-0.411404 -0.31841,-0.45456 -0.21864,-0.2193656 -0.26154,-0.360761 -0.29345,-0.9672517 -0.0607,-1.154204 0.26496,-2.1782005 0.91645,-2.8813896 0.12263,-0.1323562 0.29037,-0.324876 0.37276,-0.4278206 0.28243,-0.3528731 1.76738,-1.8844228 2.00245,-2.0652823 0.18109,-0.139326 0.28533,-0.1803504 0.45456,-0.1789027 0.29102,0.0025 0.79773,0.1155675 1.12871,0.2518875 0.14707,0.06057 0.36365,0.1466509 0.4813,0.1912897 0.11765,0.044639 0.32221,0.142947 0.45456,0.2184618 0.13236,0.075515 0.30081,0.167404 0.37434,0.2041977 0.0735,0.036793 0.1655,0.097259 0.20436,0.1343681 0.0389,0.037109 0.0943,0.06747 0.12318,0.06747 0.0861,0 0.8479,0.5830503 1.09804,0.8404171 0.17745,0.182581 0.23224,0.2800007 0.23224,0.4129474 0,0.1608032 -0.0342,0.194893 -0.45111,0.4496534 -0.2481,0.1516092 -0.47552,0.2756561 -0.50538,0.2756561 -0.0298,0 -0.0735,0.03015 -0.097,0.067002 -0.0235,0.036851 -0.17534,0.153572 -0.33738,0.2593777 -0.39376,0.257126 -0.94565,0.8320382 -1.02142,1.0640405 -0.0336,0.1029446 -0.10655,0.2888545 -0.16208,0.413126 -0.13742,0.3076038 -0.1949,1.1784668 -0.0807,1.2223025 0.12818,0.049189 0.35552,0.434875 0.35552,0.6031422 0,0.1167424 0.0498,0.1928624 0.20055,0.3070104 0.21528,0.162936 0.3516,0.3160264 0.52141,0.58556 0.28388,0.4506081 0.51591,0.7700356 0.74181,1.0212366 0.13614,0.151384 0.24752,0.287876 0.24752,0.303314 0,0.01543 0.11055,0.192386 0.24567,0.393222 0.4571,0.679386 0.60818,1.082741 0.60934,1.626701 8e-4,0.399452 -0.24464,1.367484 -0.41204,1.624786 -0.0378,0.05802 -0.0686,0.157348 -0.0686,0.220734 0,0.06338 -0.0361,0.145204 -0.0802,0.18182 -0.0441,0.03662 -0.0802,0.08791 -0.0802,0.113992 0,0.07708 -0.56179,0.919881 -0.68703,1.030698 -0.0634,0.05603 -0.11514,0.124753 -0.11514,0.152711 0,0.02797 -0.0542,0.117469 -0.12033,0.1989 -0.0662,0.08144 -0.16845,0.21552 -0.22728,0.297967 -0.0588,0.08245 -0.17915,0.236703 -0.26738,0.342792 -0.0882,0.106089 -0.18897,0.228162 -0.22385,0.271271 -0.89488,1.106149 -1.75191,1.76293 -2.30044,1.76293 -0.0652,0 -0.33004,-0.111143 -0.5886,-0.246982 z m -14.05442,-1.35735 c 0.0734,0 0.15771,-0.305212 0.21405,-0.775426 0.0176,-0.147064 0.0671,-0.423811 0.11,-0.614994 0.0915,-0.408008 0.26375,-1.28285 0.37893,-1.924577 0.0448,-0.249666 0.10445,-0.481625 0.13254,-0.515466 0.0956,-0.115186 0.50312,-0.175669 1.18947,-0.176541 0.3768,-5.34e-4 1.21863,-0.01958 1.87073,-0.04246 1.98163,-0.0695 3.90813,-0.05423 4.01176,0.03181 0.078,0.06478 0.0882,0.05851 0.087,-0.05348 -7.5e-4,-0.06978 -0.061,-0.306513 -0.13369,-0.526077 -0.0728,-0.219563 -0.13231,-0.435682 -0.13231,-0.480267 0,-0.115506 -0.22548,-0.644642 -0.27471,-0.644642 -0.0226,0 -0.0243,0.126342 -0.004,0.280759 0.0206,0.154417 0.0374,0.400815 0.0376,0.547558 5.4e-4,0.263175 -0.002,0.267736 -0.20995,0.336027 -0.28653,0.09436 -2.08573,0.172877 -4.29286,0.187349 -2.11914,0.01389 -2.0035,0.04187 -1.9396,-0.46931 0.12537,-1.002921 0.60898,-3.5075328 0.96547,-5.0001654 0.0597,-0.2500083 0.12855,-0.5508204 0.15299,-0.6684713 0.0244,-0.117651 0.083,-0.3342357 0.13019,-0.4812994 0.0472,-0.1470637 0.086,-0.3324335 0.0863,-0.4119334 5.3e-4,-0.079506 0.0271,-0.2028303 0.0596,-0.2740572 0.0325,-0.071227 0.12356,-0.378911 0.20247,-0.6837393 0.11905,-0.4599671 0.16586,-0.5655674 0.27522,-0.6209056 0.13807,-0.069866 1.83347,-0.098025 2.07092,-0.034396 0.073,0.019545 0.13387,0.088208 0.15357,0.1730715 0.0553,0.2382699 0.25646,0.6487113 0.31793,0.6487113 0.11254,0 0.11627,-0.060858 0.0164,-0.2675436 -0.0554,-0.1147204 -0.1008,-0.2308686 -0.1008,-0.2580994 0,-0.027236 -0.0336,-0.077382 -0.0746,-0.1114476 -0.041,-0.03406 -0.0898,-0.1429759 -0.10842,-0.2420326 -0.0429,-0.2287616 -0.11569,-0.2541812 -0.55116,-0.1925112 -0.19485,0.027595 -0.3706,0.040091 -0.39053,0.027769 -0.0199,-0.012322 -0.3901,-0.00154 -0.82258,0.023978 -0.89482,0.052781 -0.96863,0.085635 -1.00808,0.4486817 -0.0134,0.1229827 -0.0872,0.4642506 -0.16411,0.758378 -0.2217,0.8479426 -0.25757,0.994771 -0.33312,1.3636816 -0.20938,1.0223386 -0.51187,2.3998923 -0.55779,2.5401907 -0.0289,0.088238 -0.0762,0.3048233 -0.10508,0.4812993 -0.0289,0.1764768 -0.10223,0.5374509 -0.16291,0.8021659 -0.0606,0.264714 -0.13198,0.589592 -0.15845,0.721949 -0.0506,0.25342 -0.19273,0.915961 -0.37839,1.764765 -0.0611,0.27942 -0.1441,0.676492 -0.18442,0.882381 -0.0403,0.20589 -0.14659,0.723287 -0.23617,1.149771 -0.36918,1.757749 -0.45196,2.225288 -0.40691,2.298189 0.0211,0.03417 0.074,0.04845 0.11757,0.03174 0.0435,-0.01671 0.11092,-0.03038 0.14969,-0.03038 z m 9.09649,-0.09998 c -0.0158,-0.02558 -0.0441,-0.175984 -0.0629,-0.334236 -0.0188,-0.158256 -0.0794,-0.382499 -0.13486,-0.498321 -0.0554,-0.115822 -0.10068,-0.261415 -0.10068,-0.32354 0,-0.06213 -0.0245,-0.137454 -0.0544,-0.167391 -0.0299,-0.02994 -0.0806,-0.203204 -0.11267,-0.385039 -0.032,-0.181835 -0.0798,-0.330605 -0.10599,-0.330605 -0.0263,0 -0.0478,0.03398 -0.0478,0.07551 0,0.167948 0.16215,0.908704 0.2051,0.936972 0.0254,0.01669 0.062,0.169145 0.0815,0.338808 0.0414,0.360365 0.1894,0.73434 0.29067,0.73434 0.0389,0 0.0578,-0.02093 0.042,-0.0465 z m 5.54344,-0.608603 c 0.15084,-0.161149 0.35834,-0.447651 0.50185,-0.6929 0.033,-0.0565 0.12004,-0.167364 0.19328,-0.246372 0.0732,-0.07901 0.21688,-0.288897 0.3192,-0.466422 0.10233,-0.177519 0.26804,-0.430431 0.36824,-0.562024 0.10022,-0.131592 0.2268,-0.347321 0.28129,-0.4794 0.0545,-0.132075 0.12134,-0.283004 0.14856,-0.335402 0.13278,-0.255581 0.18977,-0.844359 0.13895,-1.435326 -0.0564,-0.655802 -0.15987,-0.960074 -0.42104,-1.23819 -0.4082,-0.434662 -0.4617,-0.500316 -0.49488,-0.607331 -0.0366,-0.118095 -0.10494,-0.209852 -0.44258,-0.5946073 -0.2245,-0.255816 -0.3387,-0.3038552 -0.19069,-0.080217 0.0535,0.080886 0.12043,0.1860973 0.14867,0.2337993 0.0282,0.04771 0.15963,0.237056 0.29198,0.420779 0.13236,0.183722 0.2659,0.377263 0.29677,0.430083 0.0309,0.05282 0.13332,0.186403 0.22766,0.296855 0.0943,0.110453 0.19773,0.298096 0.22975,0.416982 0.0599,0.222643 0.0242,1.194451 -0.0592,1.610706 -0.13991,0.697852 -0.18559,0.868997 -0.26405,0.989337 -0.0479,0.07354 -0.1197,0.229954 -0.15945,0.347605 -0.0398,0.117651 -0.14226,0.298139 -0.22782,0.401083 -0.61296,0.737533 -0.9055,1.069217 -1.12654,1.277278 -0.3226,0.303651 -0.34246,0.487487 -0.0526,0.487487 0.0777,0 0.19554,-0.06995 0.29274,-0.173803 z m -6.19435,-1.711286 c -0.0586,-0.352531 -0.0786,-0.414453 -0.13345,-0.414453 -0.0308,0 -0.0437,0.04211 -0.0286,0.09359 0.0151,0.05147 0.0435,0.18383 0.063,0.294127 0.0195,0.110298 0.0563,0.200542 0.0817,0.200542 0.0254,0 0.0332,-0.07821 0.0173,-0.173802 z m -0.25241,-0.882383 c -0.0134,-0.05147 -0.0245,-0.0094 -0.0245,0.09359 0,0.102945 0.011,0.145058 0.0245,0.09359 0.0134,-0.05147 0.0134,-0.1357 0,-0.187172 z m -3.23141,-2.199383 c 0.31659,-0.02207 0.59877,-0.06327 0.62704,-0.09155 0.082,-0.08199 -0.0514,-0.699435 -0.47867,-2.2145595 -0.18303,-0.6491657 -0.63923,-1.9826484 -0.78212,-2.2861719 -0.0727,-0.1544169 -0.16233,-0.2807579 -0.1992,-0.2807579 -0.0623,0 -0.19839,0.3929863 -0.55563,1.6043313 -0.0738,0.250008 -0.171,0.538788 -0.21617,0.641732 -0.24172,0.5510345 -0.3712,2.184045 -0.19948,2.51611 l 0.0816,0.157775 0.5735,-0.0034 c 0.31543,-0.0018 0.83255,-0.02145 1.14914,-0.04352 z m 2.39042,-0.623833 -0.10453,-0.318599 0.0266,0.261993 c 0.023,0.22752 0.11424,0.443448 0.16556,0.392136 0.009,-0.0093 -0.0301,-0.1603 -0.0876,-0.33553 z m -0.18054,-0.642155 c -0.0546,-0.148984 -0.0785,-0.176509 -0.0811,-0.09341 -0.004,0.130753 0.11644,0.430677 0.14217,0.353498 0.009,-0.02688 -0.0185,-0.143914 -0.061,-0.260083 z m 7.79966,-0.9811183 c 0.0295,-0.047752 -0.4273,-0.7113713 -0.51305,-0.7453025 -0.0248,-0.00981 -0.045,-0.062528 -0.045,-0.1171696 0,-0.115132 -0.082,-0.1808888 -0.16303,-0.1307904 -0.0347,0.021488 -0.0374,0.058256 -0.007,0.096741 0.027,0.034152 0.0782,0.1523312 0.11369,0.2626296 0.0355,0.1102976 0.0875,0.2005408 0.11561,0.2005408 0.0281,0 0.0658,0.042112 0.0839,0.093586 0.0384,0.1093032 0.28611,0.3877137 0.34494,0.3877137 0.0222,0 0.0537,-0.021576 0.0699,-0.047952 z m -0.98592,-1.6117429 c 0,-0.1376036 -0.15648,-0.3812105 -0.21976,-0.3421077 -0.0786,0.048531 -0.0539,0.2301146 0.0459,0.3395353 0.12314,0.1348656 0.1738,0.1356144 0.1738,0.00257 z m -0.21945,-0.8136527 c 0.003,-0.2132424 0.0299,-0.5321032 0.059,-0.7085796 0.029,-0.1764765 0.053,-0.3268825 0.0532,-0.3342357 8e-4,-0.034867 -0.16036,-0.00827 -0.16203,0.026739 -8e-4,0.022059 -0.0234,0.2804745 -0.0496,0.5742489 -0.047,0.5263705 -0.0278,0.8295409 0.0523,0.8295409 0.0225,0 0.0437,-0.174471 0.0471,-0.3877134 z m 0.21945,-1.2433567 c 0.0394,-0.073532 0.089,-0.1336943 0.1104,-0.1336943 0.0214,0 0.10428,-0.126341 0.18429,-0.2807579 0.08,-0.1544169 0.2931,-0.4373461 0.47354,-0.6287374 0.76933,-0.8160158 0.86552,-0.9648962 0.71845,-1.1119609 -0.12444,-0.1244474 -0.24859,-0.060198 -0.64002,0.3312345 -0.478,0.4779998 -0.86982,1.0938758 -0.91758,1.442251 -0.0187,0.1363467 -0.0491,0.3080743 -0.0675,0.3816276 -0.0434,0.1727704 0.046,0.1727971 0.13847,3.74e-5 z M 86.535028,18.53731 c -0.0748,-0.09012 -0.109376,-1.621915 -0.121648,-5.388227 -0.004,-1.13239 -0.02792,-2.516126 -0.05384,-3.074968 C 86.28018,8.3632622 86.190828,6.6038132 86.177628,6.4911089 86.166748,6.3981859 86.123468,5.9127636 86.0703,5.2878605 86.0615,5.1849159 86.03622,4.7002795 86.01398,4.2108927 85.97502,3.3520514 85.97734,3.3190878 86.0815,3.263372 c 0.169168,-0.090533 3.886913,-0.083052 3.962457,0.00798 0.03872,0.046648 0.05976,0.6783958 0.0636,1.9121051 0.0095,3.0410475 0.143448,7.1217279 0.270248,8.2330209 0.02856,0.250008 0.08681,0.777898 0.129504,1.173087 0.04832,0.44702 0.105536,0.746421 0.151464,0.792353 0.06008,0.06011 0.435304,0.07363 2.020296,0.07281 1.07056,-5.36e-4 2.12696,-0.02486 2.347552,-0.054 0.55344,-0.0731 2.350416,-0.234714 2.51192,-0.225917 0.07272,0.0039 0.159288,0.0371 0.192432,0.07366 0.05288,0.05834 0.179992,1.067527 0.210432,1.670798 0.0056,0.117651 0.02784,0.481449 0.04864,0.808444 0.05024,0.788892 0.04448,0.795374 -0.66,0.740747 -1.095888,-0.08498 -6.276328,-0.02417 -9.817368,0.115244 -0.782457,0.03081 -0.918953,0.02434 -0.977641,-0.04638 z m 8.141577,-1.513002 c 0.851656,-0.01397 1.569976,-0.04692 1.596272,-0.07321 0.02632,-0.0263 0.03176,-0.09836 0.01216,-0.160144 -0.02832,-0.08924 -0.08164,-0.113432 -0.259328,-0.117651 -0.380112,-0.009 -1.988224,0.0034 -4.555368,0.0353 -1.543192,0.01914 -2.48776,0.01131 -2.53452,-0.02101 -0.05256,-0.03634 -0.08056,-0.206842 -0.09496,-0.578399 -0.0112,-0.28978 -0.05536,-1.11646 -0.09814,-1.837072 -0.04272,-0.720612 -0.102864,-2.056217 -0.133608,-2.968013 -0.03072,-0.911794 -0.07816,-1.9706532 -0.105352,-2.353018 -0.0272,-0.3823656 -0.0636,-1.4412245 -0.08078,-2.3530195 -0.0172,-0.9117949 -0.04368,-1.7579513 -0.05872,-1.8803511 -0.03032,-0.2458209 -0.127832,-0.3186522 -0.301904,-0.225494 -0.109456,0.058579 -0.110824,0.081254 -0.07872,1.3014709 0.018,0.6830226 0.058,1.769112 0.08891,2.4135345 0.03096,0.644428 0.08085,1.9417592 0.110904,2.8829672 0.03008,0.941207 0.08909,2.50543 0.131152,3.47605 0.04208,0.970621 0.07744,1.901422 0.07864,2.068444 0.004,0.517391 -0.163216,0.486935 2.457656,0.448458 1.252504,-0.01839 2.974088,-0.04486 3.825744,-0.05883 z M 3.8905622,0.01051518 c 0.038604,-0.01544811 0.084728,-0.01354858 0.1024991,0.0042194 0.01777,0.01777064 -0.013815,0.03040956 -0.07019,0.02808756 -0.062299,-0.0025669 -0.07497,-0.01523794 -0.03231,-0.0323091 z"
       id="path9602" />
  </g>
</svg>
